<?xml version="1.0" ?><svg height="128" id="svg8" version="1.1" viewBox="0 0 33.866666 33.866668" width="128" xmlns="http://www.w3.org/2000/svg" xmlns:cc="http://creativecommons.org/ns#" xmlns:dc="http://purl.org/dc/elements/1.1/" xmlns:inkscape="http://www.inkscape.org/namespaces/inkscape" xmlns:rdf="http://www.w3.org/1999/02/22-rdf-syntax-ns#" xmlns:sodipodi="http://sodipodi.sourceforge.net/DTD/sodipodi-0.dtd" xmlns:svg="http://www.w3.org/2000/svg" xmlns:xlink="http://www.w3.org/1999/xlink"><defs id="defs2"><linearGradient id="linearGradient2202"><stop id="stop2198" offset="0" style="stop-color:#f6f600;stop-opacity:1;"/><stop id="stop2200" offset="1" style="stop-color:#f69134;stop-opacity:1"/></linearGradient><linearGradient gradientTransform="matrix(0.39352029,0,0,0.39352035,-185.27183,93.82285)" gradientUnits="userSpaceOnUse" id="linearGradient3363" x1="12.262755" x2="12.262755" xlink:href="#linearGradient2202" y1="9.0164375" y2="14.680936"/><clipPath clipPathUnits="userSpaceOnUse" id="clipPath3457"><rect height="58.93293" id="rect3459" rx="2.6458333" ry="2.6458333" style="fill:#1a1a1a;stroke-width:0.264583;stroke-linecap:square;stroke-dasharray:0.264583, 1.05833;paint-order:fill markers stroke" width="61.739258" x="-262.11121" y="114.49826"/></clipPath><clipPath clipPathUnits="userSpaceOnUse" id="clipPath3791"><ellipse cx="-93.170158" cy="29.747097" id="ellipse3793" rx="45.275459" ry="42.469128" style="fill:#f979e8;fill-opacity:1;stroke:#000080;stroke-width:2.64583;stroke-linecap:round;stroke-linejoin:round;stroke-miterlimit:4;stroke-dasharray:none;stroke-dashoffset:0;paint-order:fill markers stroke"/></clipPath><clipPath clipPathUnits="userSpaceOnUse" id="clipPath71886"><rect height="171.67012" id="rect71888" rx="2.3812499" ry="2.3812499" style="fill:none;stroke:#1e9a4a;stroke-width:0.264583;stroke-linecap:round;stroke-linejoin:round;stroke-miterlimit:4;stroke-dasharray:0.264583, 1.05833;stroke-dashoffset:0;stroke-opacity:1;paint-order:fill markers stroke" width="182.57619" x="-482.60001" y="-9.5249996"/></clipPath><clipPath clipPathUnits="userSpaceOnUse" id="clipPath71892"><rect height="131.23334" id="rect71894" rx="2.3812499" ry="2.3812499" style="fill:none;stroke:#1e9a4a;stroke-width:0.264583;stroke-linecap:round;stroke-linejoin:round;stroke-miterlimit:4;stroke-dasharray:0.264583, 1.05833;stroke-dashoffset:0;stroke-opacity:1;paint-order:fill markers stroke" width="184.14999" x="-225.425" y="-33.866665"/></clipPath><clipPath clipPathUnits="userSpaceOnUse" id="clipPath73580"><rect height="93.170158" id="rect73582" rx="2.3812499" ry="2.3812499" style="fill:none;stroke:#007cdc;stroke-width:0.264999;stroke-linecap:square;stroke-dasharray:0.264999, 1.06;paint-order:fill markers stroke" width="142.18739" x="-186.71449" y="28.063299"/></clipPath></defs><g id="layer1"><path d="M 54.216797 9 A 50.499999 43.847853 0 0 0 4 52.847656 A 50.499999 43.847853 0 0 0 20.152344 84.990234 L 14.537109 94.71875 C 12.558606 98.987519 16.593177 101.11847 19.345703 99.529297 L 32.119141 92.154297 A 50.499999 43.847853 0 0 0 54.5 96.695312 A 50.499999 43.847853 0 0 0 105 52.847656 A 50.499999 43.847853 0 0 0 54.5 9 A 50.499999 43.847853 0 0 0 54.216797 9 z " id="path73719" style="fill:#00a1ff;fill-opacity:1;stroke:none;stroke-width:1.0342;stroke-linecap:square;stroke-dasharray:1.0342, 4.13680999999999965;stroke-opacity:1;paint-order:fill markers stroke" transform="scale(0.26458333)"/><path d="m 23.238622,14.147576 a 9.6137283,8.3473531 0 0 1 9.559815,8.347314 9.6137283,8.3473531 0 0 1 -3.074934,6.119012 l 1.068975,1.852026 c 0.376649,0.81265 -0.391416,1.218321 -0.915416,0.915788 l -2.431691,-1.403984 a 9.6137283,8.3473531 0 0 1 -4.260662,0.864476 9.6137283,8.3473531 0 0 1 -9.61373,-8.347318 9.6137283,8.3473531 0 0 1 9.61373,-8.347314 9.6137283,8.3473531 0 0 1 0.05391,0 z" id="path73789" style="fill:#0066ff;fill-opacity:1;stroke:none;stroke-width:0.196881;stroke-linecap:square;stroke-dasharray:0.196881, 0.78752699999999998;stroke-opacity:1;paint-order:fill markers stroke"/><g id="g73816" style="fill:#ffffff" transform="translate(1.8096856,2.9104167)"><path d="M 8.2868775,9.2913034 A 1.6360166,1.6360166 0 0 1 6.6508608,7.6552872 1.6360166,1.6360166 0 0 1 8.2868775,6.0192706 1.6360166,1.6360166 0 0 1 9.9228935,7.6552872 1.6360166,1.6360166 0 0 1 8.2868775,9.2913034 Z" id="path73793" style="fill:#ffffff;fill-opacity:1;stroke:none;stroke-width:0.36413;stroke-linecap:square;stroke-dasharray:0.36413, 1.45653000000000010;stroke-opacity:1;paint-order:fill markers stroke"/><path d="M 16.933335,9.2913034 A 1.6360166,1.6360166 0 0 1 15.297318,7.6552872 1.6360166,1.6360166 0 0 1 16.933335,6.0192706 1.6360166,1.6360166 0 0 1 18.569351,7.6552872 1.6360166,1.6360166 0 0 1 16.933335,9.2913034 Z" id="path73804" style="fill:#ffffff;fill-opacity:1;stroke:none;stroke-width:0.36413;stroke-linecap:square;stroke-dasharray:0.36413, 1.45653000000000010;stroke-opacity:1;paint-order:fill markers stroke"/></g><g id="g73822" style="fill:#ffffff" transform="translate(10.574602,12.236979)"><g id="g73830" style="fill:#ffffff" transform="translate(0.23386105)"><path d="M 8.8949156,9.2913034 A 1.6360166,1.6360166 0 0 1 7.2588989,7.6552872 1.6360166,1.6360166 0 0 1 8.8949156,6.0192706 1.6360166,1.6360166 0 0 1 10.530932,7.6552872 1.6360166,1.6360166 0 0 1 8.8949156,9.2913034 Z" id="path73818" style="fill:#ffffff;fill-opacity:1;stroke:none;stroke-width:0.36413;stroke-linecap:square;stroke-dasharray:0.36413, 1.45653000000000010;stroke-opacity:1;paint-order:fill markers stroke"/><path d="M 15.857575,9.2913034 A 1.6360166,1.6360166 0 0 1 14.221558,7.6552872 1.6360166,1.6360166 0 0 1 15.857575,6.0192706 1.6360166,1.6360166 0 0 1 17.493591,7.6552872 1.6360166,1.6360166 0 0 1 15.857575,9.2913034 Z" id="path73820" style="fill:#ffffff;fill-opacity:1;stroke:none;stroke-width:0.36413;stroke-linecap:square;stroke-dasharray:0.36413, 1.45653000000000010;stroke-opacity:1;paint-order:fill markers stroke"/></g></g></g></svg>